#!OML:ASF H:\ManfredETheater\Project 1\Capture day 1\Session 1\subject.ASF
:FULLY-SPECIFIED
:DEGREES
121
root 0.611015 17.0367 32.1779 -172.858 -4.81807 177.572
lowerback 6.47675 -0.951754 -4.30955
upperback -2.40673 -1.57933 1.595
thorax -5.99665 -0.585782 4.27767
lowerneck -18.7074 -0.200896 -1.80352
upperneck 24.0094 -0.0712685 -1.22474
head 10.8442 -0.616979 -0.200011
rclavicle -9.93923e-017 -3.57812e-015
rhumerus -35.6648 -11.0389 -77.794
rradius 31.3109
rwrist 1.45746
rhand -20.0946 -12.5432
rfingers 7.12502
rthumb 6.24847 -42.4311
lclavicle -9.93923e-017 -3.57812e-015
lhumerus -35.9364 4.00788 85.0373
lradius 33.8151
lwrist -13.1359
lhand -8.88892 9.64791
lfingers 7.12502
lthumb 17.0534 38.9194
rfemur -34.73 -4.4529 15.3793
rtibia 41.0373
rfoot -9.56221 -3.53279
rtoes 12.3124
lfemur -11.5091 -4.49121 -26.1773
ltibia 32.6696
lfoot -24.8908 0.075806
ltoes 10.2225
122
root 0.614505 17.032 32.1539 -172.739 -4.82678 177.545
lowerback 6.57052 -0.960518 -4.29265
upperback -2.37442 -1.59196 1.5963
thorax -6.01512 -0.592275 4.27305
lowerneck -18.6949 -0.213713 -1.80715
upperneck 23.9015 -0.0790722 -1.22672
head 10.8019 -0.61578 -0.199748
rclavicle 1.98785e-016 1.23246e-014
rhumerus -35.6554 -10.9937 -77.8326
rradius 31.382
rwrist 1.39155
rhand -20.1079 -12.5407
rfingers 7.12502
rthumb 6.23565 -42.4289
lclavicle 1.98785e-016 1.23246e-014
lhumerus -35.9075 3.92933 85.1026
lradius 33.9048
lwrist -13.0701
lhand -8.88427 9.66601
lfingers 7.12502
lthumb 17.0578 38.9371
rfemur -34.8831 -4.48674 15.3797
rtibia 41.2518
rfoot -9.73048 -3.51729
rtoes 12.2943
lfemur -11.5601 -4.51582 -26.1847
ltibia 32.6941
lfoot -24.9685 0.0733145
ltoes 10.3437
123
root 0.618166 17.0271 32.129 -172.617 -4.83879 177.515
lowerback 6.66398 -0.971293 -4.27703
upperback -2.34025 -1.60733 1.59791
thorax -6.03112 -0.600177 4.26974
lowerneck -18.6745 -0.226248 -1.80834
upperneck 23.7836 -0.086211 -1.2322
head 10.7545 -0.614207 -0.200935
rclavicle -2.99171e-014 1.35174e-014
rhumerus -35.6447 -10.9415 -77.8751
rradius 31.4588
rwrist 1.3177
rhand -20.1232 -12.531
rfingers 7.12502
rthumb 6.22085 -42.4197
lclavicle -2.99171e-014 1.35174e-014
lhumerus -35.884 3.8443 85.1731
lradius 34.0055
lwrist -12.9981
lhand -8.88328 9.68274
lfingers 7.12502
lthumb 17.0588 38.9538
rfemur -35.0394 -4.5218 15.3776
rtibia 41.4712
rfoot -9.90577 -3.50374
rtoes 12.2765
lfemur -11.6124 -4.54221 -26.1937
ltibia 32.719
lfoot -25.054 0.079647
ltoes 10.4022
124
root 0.622115 17.022 32.1034 -172.49 -4.85091 177.485
lowerback 6.76408 -0.98312 -4.26353
upperback -2.3082 -1.62454 1.60166
thorax -6.05286 -0.608678 4.27042
lowerneck -18.6446 -0.237337 -1.81068
upperneck 23.6584 -0.0912193 -1.23789
head 10.7026 -0.611687 -0.201606
rclavicle -1.02374e-014 -1.55052e-014
rhumerus -35.6359 -10.8813 -77.9184
rradius 31.5381
rwrist 1.23789
rhand -20.1408 -12.5174
rfingers 7.12502
rthumb 6.20389 -42.4065
lclavicle -1.02374e-014 -1.55052e-014
lhumerus -35.8676 3.75246 85.2489
lradius 34.1142
lwrist -12.9173
lhand -8.89611 9.69335
lfingers 7.12502
lthumb 17.0464 38.9654
rfemur -35.2004 -4.55461 15.3759
rtibia 41.6961
rfoot -10.086 -3.49173
rtoes 12.2574
lfemur -11.6668 -4.56688 -26.2019
ltibia 32.7437
lfoot -25.1511 0.102134
ltoes 10.3644
125
root 0.626331 17.0169 32.077 -172.356 -4.86273 177.451
lowerback 6.86195 -0.996946 -4.25493
upperback -2.27644 -1.64471 1.60749
thorax -6.07318 -0.618479 4.27638
lowerneck -18.5962 -0.246599 -1.81487
upperneck 23.5187 -0.0935337 -1.24376
head 10.642 -0.607848 -0.201456
rclavicle -1.45113e-014 2.38542e-015
rhumerus -35.6262 -10.8078 -77.9646
rradius 31.6195
rwrist 1.15202
rhand -20.161 -12.5048
rfingers 7.12502
rthumb 6.18437 -42.3945
lclavicle -1.45113e-014 2.38542e-015
lhumerus -35.8602 3.65899 85.3287
lradius 34.2349
lwrist -12.8294
lhand -8.90083 9.70089
lfingers 7.12502
lthumb 17.0419 38.9734
rfemur -35.3677 -4.58592 15.3722
rtibia 41.9266
rfoot -10.2731 -3.48168
rtoes 12.2378
lfemur -11.724 -4.59067 -26.2116
ltibia 32.7675
lfoot -25.2517 0.12491
ltoes 10.3241
126
root 0.63074 17.0115 32.0496 -172.216 -4.87333 177.413
lowerback 6.95863 -1.00927 -4.24797
upperback -2.24028 -1.66303 1.61039
thorax -6.08835 -0.627576 4.27987
lowerneck -18.5545 -0.258809 -1.8175
upperneck 23.3719 -0.09976 -1.24795
head 10.5803 -0.604945 -0.201448
rclavicle -8.74653e-015 -8.34896e-015
rhumerus -35.6068 -10.7395 -78.0144
rradius 31.7019
rwrist 1.06397
rhand -20.1858 -12.4992
rfingers 7.12502
rthumb 6.16042 -42.3896
lclavicle -8.74653e-015 -8.34896e-015
lhumerus -35.8472 3.55214 85.4124
lradius 34.3645
lwrist -12.7357
lhand -8.90174 9.70343
lfingers 7.12502
lthumb 17.041 38.976
rfemur -35.5425 -4.61898 15.3646
rtibia 42.1633
rfoot -10.4662 -3.46979
rtoes 12.2096
lfemur -11.7841 -4.61506 -26.2262
ltibia 32.7901
lfoot -25.3568 0.153632
ltoes 10.2725
127
root 0.635409 17.0059 32.0214 -172.066 -4.88301 177.373
lowerback 7.05535 -1.02132 -4.24125
upperback -2.2041 -1.68104 1.61331
thorax -6.10357 -0.63653 4.28354
lowerneck -18.5105 -0.271543 -1.82247
upperneck 23.2169 -0.106699 -1.24794
head 10.5153 -0.601733 -0.199553
rclavicle -9.34288e-015 2.78299e-014
rhumerus -35.5842 -10.6691 -78.0659
rradius 31.787
rwrist 0.976161
rhand -20.2062 -12.4945
rfingers 7.12502
rthumb 6.14078 -42.3855
lclavicle -9.34288e-015 2.78299e-014
lhumerus -35.8372 3.43639 85.4996
lradius 34.5047
lwrist -12.6358
lhand -8.89542 9.73481
lfingers 7.12502
lthumb 17.0471 39.0068
rfemur -35.7275 -4.65237 15.3572
rtibia 42.4062
rfoot -10.6652 -3.45749
rtoes 12.1822
lfemur -11.8499 -4.6403 -26.2407
ltibia 32.8115
lfoot -25.4645 0.185504
ltoes 10.2184
128
root 0.640297 17.0002 31.9923 -171.908 -4.89053 177.328
lowerback 7.15397 -1.03347 -4.24003
upperback -2.17019 -1.69981 1.61749
thorax -6.12202 -0.645519 4.29189
lowerneck -18.4589 -0.283671 -1.82986
upperneck 23.0548 -0.112484 -1.24702
head 10.4463 -0.597961 -0.19669
rclavicle 1.61513e-014 -1.51076e-014
rhumerus -35.5621 -10.5914 -78.116
rradius 31.873
rwrist 0.889564
rhand -20.215 -12.4667
rfingers 7.12502
rthumb 6.1323 -42.358
lclavicle 1.61513e-014 -1.51076e-014
lhumerus -35.833 3.32001 85.5901
lradius 34.6534
lwrist -12.5335
lhand -8.8921 9.75209
lfingers 7.12502
lthumb 17.0503 39.0239
rfemur -35.9223 -4.68878 15.3474
rtibia 42.6557
rfoot -10.8691 -3.4419
rtoes 12.1402
lfemur -11.9209 -4.6639 -26.259
ltibia 32.8316
lfoot -25.5751 0.221102
ltoes 10.1511
